STARTFONT 2.1
COMMENT Exported by Fony v1.4.7
FONT 21X31L
SIZE 31 96 96
FONTBOUNDINGBOX 22 30 0 -6
STARTPROPERTIES 6
COPYRIGHT "Tangar (http://tangar.info) for TomeNET (http://tomenet.eu)"
RESOLUTION_X 96
RESOLUTION_Y 96
FONT_ASCENT 25
FONT_DESCENT 6
DEFAULT_CHAR 31
ENDPROPERTIES
CHARS 255
STARTCHAR 001
ENCODING 1
SWIDTH 1512 0
DWIDTH 21 0
BBX 17 25 2 -6
BITMAP
07F000
3FFC00
3FFC00
7FFF00
7FFF00
F00780
F00780
F00780
FFFF80
FFFF80
FFFF80
FFFF80
FFFF80
FFFF80
FFFF80
FFFF80
FFFB80
FFF180
FFFB80
FFFF80
FFFF80
FFFF80
FFFF80
FFFF80
FFFF80
ENDCHAR
STARTCHAR 002
ENCODING 2
SWIDTH 1512 0
DWIDTH 21 0
BBX 21 29 0 -6
BITMAP
FFFE78
FFFE78
FFFE78
FFFE78
FFFE78
FFFE78
000000
000000
FF9FF8
FF9FF8
FF9FF8
FF9FF8
FF9FF8
000000
000000
FFFE78
FFFE78
FFFE78
FFFE78
FFFE78
000000
000000
FF9FF8
FF9FF8
FF9FF8
FF9FF8
FF9FF8
FF9FF8
FF9FF8
ENDCHAR
STARTCHAR 003
ENCODING 3
SWIDTH 1512 0
DWIDTH 21 0
BBX 16 25 4 -6
BITMAP
0C00
0C00
CCC0
CCC0
330C
0FF0
0FF0
F30F
F30F
03F0
03F0
FF0C
FF0C
33C3
33C3
C330
0FC0
0FC8
F318
F330
03E0
03C0
03C0
03C0
03C0
ENDCHAR
STARTCHAR 004
ENCODING 4
SWIDTH 1512 0
DWIDTH 21 0
BBX 21 29 0 -6
BITMAP
007800
007800
01FE00
01FE00
079F80
079F80
067F80
067F80
3FFFE0
3FF860
3FF860
3FE018
3FE018
3F8780
3F8780
3E1FE0
3E1FE0
067E78
067E78
387F98
C1FFF8
C1FFF8
C1E7F8
C1E7F8
C1FFF8
C1FFF8
C66660
C66660
019998
ENDCHAR
STARTCHAR 005
ENCODING 5
SWIDTH 1512 0
DWIDTH 21 0
BBX 21 29 0 -5
BITMAP
408800
000000
021100
010200
000000
24A0A0
001400
A2A100
095000
24A920
005200
082880
010400
000040
004800
008100
220000
012440
001000
084010
020280
110940
405290
040240
005508
100000
044910
000000
011000
ENDCHAR
STARTCHAR 006
ENCODING 6
SWIDTH 1512 0
DWIDTH 21 0
BBX 19 28 2 -5
BITMAP
066000
066000
07E180
07E180
07E600
07E600
E18600
E18600
199800
199800
199800
066000
066000
000000
000000
001980
001980
061F80
061F80
019F80
018600
018600
006660
006660
006660
006660
001980
001980
ENDCHAR
STARTCHAR 007
ENCODING 7
SWIDTH 1512 0
DWIDTH 21 0
BBX 17 25 2 -6
BITMAP
07F000
3FFC00
380C00
700700
600300
C00180
800080
87F080
83F080
81F080
80F080
817080
823080
841080
880080
900080
800780
801F80
807F80
81FF80
83FF80
87FF80
9FFF80
BFFF80
FFFF80
ENDCHAR
STARTCHAR 008
ENCODING 8
SWIDTH 1512 0
DWIDTH 21 0
BBX 17 25 2 -6
BITMAP
07F000
1FFE00
180E00
700700
600300
C00180
800080
840080
820080
810080
808080
804080
802280
801680
800E80
803E80
F07E80
FC0080
FF0080
FFC080
FFE080
FFF080
FFFC80
FFFE80
FFFF80
ENDCHAR
STARTCHAR 009
ENCODING 9
SWIDTH 1512 0
DWIDTH 21 0
BBX 21 29 0 -6
BITMAP
FE7E78
FE7E78
F98198
F98198
C60060
C60060
0781E0
0781E0
C7FFE0
C1FF80
C1FF80
C67E60
C67E60
0781E0
0781E0
C7FFE0
C7FFE0
F9FF98
F9FF98
FE7E78
000000
000000
FF9FF8
FF9FF8
FF9FF8
FF9FF8
FF9FF8
FF9FF8
FF9FF8
ENDCHAR
STARTCHAR 010
ENCODING 10
SWIDTH 1512 0
DWIDTH 21 0
BBX 21 29 0 -6
BITMAP
F9FFF8
F9FFF8
1F9FF8
1F9FF8
F9FFF8
F9FFF8
000000
000000
FFE7F8
FE7E78
FE7E78
FFE7F8
FFE7F8
000000
000000
F9FFF8
F9FFF8
1F9FF8
1F9FF8
F9FFF8
000000
000000
FFF9F8
FFF9F8
FF9F98
FF9F98
FFF9F8
FFF9F8
FFF9F8
ENDCHAR
STARTCHAR 011
ENCODING 11
SWIDTH 1512 0
DWIDTH 21 0
BBX 17 25 2 -6
BITMAP
07F000
3FFC00
380C00
700700
600300
C00180
800080
800080
800080
800080
800080
800080
800080
800080
800080
800080
800080
800080
800080
800080
800080
800080
800080
800080
800080
ENDCHAR
STARTCHAR 012
ENCODING 12
SWIDTH 1512 0
DWIDTH 21 0
BBX 0 0 0 0
BITMAP
ENDCHAR
STARTCHAR 013
ENCODING 13
SWIDTH 1512 0
DWIDTH 21 0
BBX 0 0 0 0
BITMAP
ENDCHAR
STARTCHAR 014
ENCODING 14
SWIDTH 1512 0
DWIDTH 21 0
BBX 21 29 0 -6
BITMAP
FFFE78
FFFE78
FFFE78
FFFE78
FFFE78
FFFE78
000000
000000
FF9FF8
FF9FF8
FF9FF8
FF9FF8
FF9FF8
000000
000000
FFFE78
FFFE78
FFFE78
FFFE78
FFFE78
000000
000000
FF9FF8
FF9FF8
FF9FF8
FF9FF8
FF9FF8
FF9FF8
FF9FF8
ENDCHAR
STARTCHAR 015
ENCODING 15
SWIDTH 1512 0
DWIDTH 21 0
BBX 16 27 3 -2
BITMAP
0104
2000
0000
00CE
00CC
00CC
00CC
0030
0031
0830
0000
0000
0000
0101
8000
0000
0000
0008
3000
3000
3000
8C00
0C00
0C10
0C40
0000
A000
ENDCHAR
STARTCHAR 016
ENCODING 16
SWIDTH 1512 0
DWIDTH 21 0
BBX 0 0 0 0
BITMAP
ENDCHAR
STARTCHAR 017
ENCODING 17
SWIDTH 1512 0
DWIDTH 21 0
BBX 0 0 0 0
BITMAP
ENDCHAR
STARTCHAR 018
ENCODING 18
SWIDTH 1512 0
DWIDTH 21 0
BBX 0 0 0 0
BITMAP
ENDCHAR
STARTCHAR 019
ENCODING 19
SWIDTH 1512 0
DWIDTH 21 0
BBX 0 0 0 0
BITMAP
ENDCHAR
STARTCHAR 020
ENCODING 20
SWIDTH 1512 0
DWIDTH 21 0
BBX 0 0 0 0
BITMAP
ENDCHAR
STARTCHAR 021
ENCODING 21
SWIDTH 1512 0
DWIDTH 21 0
BBX 0 0 0 0
BITMAP
ENDCHAR
STARTCHAR 022
ENCODING 22
SWIDTH 1512 0
DWIDTH 21 0
BBX 0 0 0 0
BITMAP
ENDCHAR
STARTCHAR 023
ENCODING 23
SWIDTH 1512 0
DWIDTH 21 0
BBX 0 0 0 0
BITMAP
ENDCHAR
STARTCHAR 024
ENCODING 24
SWIDTH 1512 0
DWIDTH 21 0
BBX 0 0 0 0
BITMAP
ENDCHAR
STARTCHAR 025
ENCODING 25
SWIDTH 1512 0
DWIDTH 21 0
BBX 0 0 0 0
BITMAP
ENDCHAR
STARTCHAR 026
ENCODING 26
SWIDTH 1512 0
DWIDTH 21 0
BBX 0 0 0 0
BITMAP
ENDCHAR
STARTCHAR 027
ENCODING 27
SWIDTH 1512 0
DWIDTH 21 0
BBX 0 0 0 0
BITMAP
ENDCHAR
STARTCHAR 028
ENCODING 28
SWIDTH 1512 0
DWIDTH 21 0
BBX 0 0 0 0
BITMAP
ENDCHAR
STARTCHAR 029
ENCODING 29
SWIDTH 1512 0
DWIDTH 21 0
BBX 0 0 0 0
BITMAP
ENDCHAR
STARTCHAR 030
ENCODING 30
SWIDTH 1512 0
DWIDTH 21 0
BBX 0 0 0 0
BITMAP
ENDCHAR
STARTCHAR 031
ENCODING 31
SWIDTH 1512 0
DWIDTH 21 0
BBX 0 0 0 0
BITMAP
ENDCHAR
STARTCHAR 032
ENCODING 32
SWIDTH 1512 0
DWIDTH 21 0
BBX 0 0 0 0
BITMAP
ENDCHAR
STARTCHAR 033
ENCODING 33
SWIDTH 1512 0
DWIDTH 21 0
BBX 7 24 7 -2
BITMAP
38
7C
7C
FE
FE
E6
E6
E6
FE
FE
FE
FE
FE
7C
7C
78
78
30
00
00
30
78
78
30
ENDCHAR
STARTCHAR 034
ENCODING 34
SWIDTH 1512 0
DWIDTH 21 0
BBX 10 6 6 14
BITMAP
F3C0
F3C0
F3C0
F3C0
E1C0
C0C0
ENDCHAR
STARTCHAR 035
ENCODING 35
SWIDTH 1512 0
DWIDTH 21 0
BBX 13 13 4 5
BITMAP
38E0
38E0
FFF8
FFF8
FFF8
38E0
38E0
38E0
FFF8
FFF8
FFF8
38E0
38E0
ENDCHAR
STARTCHAR 036
ENCODING 36
SWIDTH 1512 0
DWIDTH 21 0
BBX 15 28 2 -5
BITMAP
0060
00E0
00E0
03E0
0FF8
1FFC
3DDE
79CE
71C6
71C6
79C0
3FC0
3FC0
0FF0
03F8
039C
039E
038E
C38E
E38E
F39E
7FBC
3FF8
1FF0
07C0
0700
0700
0600
ENDCHAR
STARTCHAR 037
ENCODING 37
SWIDTH 1512 0
DWIDTH 21 0
BBX 18 21 2 0
BITMAP
000400
000400
380C00
7C0C00
C61C00
C63800
C63800
C67000
7C7000
38E000
00E000
01C700
01CF80
0398C0
0398C0
0718C0
0718C0
0E0F80
0C0700
1C0000
380000
ENDCHAR
STARTCHAR 038
ENCODING 38
SWIDTH 1512 0
DWIDTH 21 0
BBX 16 19 2 0
BITMAP
07E0
0FF0
1818
1818
1818
1870
0CE0
0F80
0F80
1F80
39E3
70F3
E0F7
E07E
E03C
F01E
7FFF
7FF7
1FC3
ENDCHAR
STARTCHAR 039
ENCODING 39
SWIDTH 1512 0
DWIDTH 21 0
BBX 6 10 7 9
BITMAP
7C
7C
7C
7C
7C
18
38
30
60
C0
ENDCHAR
STARTCHAR 040
ENCODING 40
SWIDTH 1512 0
DWIDTH 21 0
BBX 7 25 6 -3
BITMAP
02
06
0C
1C
18
38
30
70
F0
E0
E0
E0
E0
E0
E0
E0
F0
70
30
38
18
1C
0C
06
02
ENDCHAR
STARTCHAR 041
ENCODING 41
SWIDTH 1512 0
DWIDTH 21 0
BBX 7 25 7 -3
BITMAP
80
C0
60
70
30
38
18
1C
1E
0E
0E
0E
0E
0E
0E
0E
1E
1C
18
38
30
70
60
C0
80
ENDCHAR
STARTCHAR 042
ENCODING 42
SWIDTH 1512 0
DWIDTH 21 0
BBX 12 13 5 3
BITMAP
0600
C630
E670
76E0
3FC0
1F80
FFF0
FFF0
1F80
3FC0
76E0
E670
C630
ENDCHAR
STARTCHAR 043
ENCODING 43
SWIDTH 1512 0
DWIDTH 21 0
BBX 17 17 2 1
BITMAP
03E000
03E000
03E000
03E000
03E000
03E000
FFFF80
FFFF80
FFFF80
FFFF80
FFFF80
03E000
03E000
03E000
03E000
03E000
03E000
ENDCHAR
STARTCHAR 044
ENCODING 44
SWIDTH 1512 0
DWIDTH 21 0
BBX 8 10 7 -5
BITMAP
1C
3E
7F
7F
7F
3E
1C
38
70
C0
ENDCHAR
STARTCHAR 045
ENCODING 45
SWIDTH 1512 0
DWIDTH 21 0
BBX 19 8 1 5
BITMAP
000040
000200
FFF880
FFF9E0
FFF9C0
FFF880
000200
000040
ENDCHAR
STARTCHAR 046
ENCODING 46
SWIDTH 1512 0
DWIDTH 21 0
BBX 4 4 10 7
BITMAP
60
F0
F0
60
ENDCHAR
STARTCHAR 047
ENCODING 47
SWIDTH 1512 0
DWIDTH 21 0
BBX 12 21 2 0
BITMAP
0030
0030
0070
00F0
00E0
00E0
01C0
01C0
0380
0380
0700
0F00
0E00
1E00
1C00
3C00
3800
7000
F000
E000
E000
ENDCHAR
STARTCHAR 048
ENCODING 48
SWIDTH 1512 0
DWIDTH 21 0
BBX 13 20 2 0
BITMAP
01C0
07E0
0FF0
3FF0
3E70
3C38
7838
7838
7078
7078
7078
F0F0
E0F0
E0F0
E1E0
E3C0
F3C0
7F80
7F80
3F00
ENDCHAR
STARTCHAR 049
ENCODING 49
SWIDTH 1512 0
DWIDTH 21 0
BBX 9 20 5 0
BITMAP
0300
0700
0F00
1F00
3F00
7F00
FF00
0E00
0E00
0E00
0E00
1E00
1E00
1E00
1E00
1E00
1E00
3E00
7F00
FF80
ENDCHAR
STARTCHAR 050
ENCODING 50
SWIDTH 1512 0
DWIDTH 21 0
BBX 14 21 2 0
BITMAP
03F0
07F8
0FFC
1F1C
3C1C
3C1C
301C
301C
003C
0038
0078
00F0
01E0
03C0
0780
0F00
1E00
3C1C
FFFC
FFFC
FFFC
ENDCHAR
STARTCHAR 051
ENCODING 51
SWIDTH 1512 0
DWIDTH 21 0
BBX 13 20 2 0
BITMAP
03E0
07F0
0FF0
1C78
1878
1038
0038
0078
00F0
03E0
07F0
00F0
0038
0018
8018
E038
F0F8
7FF0
3FE0
1F80
ENDCHAR
STARTCHAR 052
ENCODING 52
SWIDTH 1512 0
DWIDTH 21 0
BBX 11 20 6 0
BITMAP
3000
3000
3060
7060
70E0
60E0
E0C0
E1C0
FFC0
FFC0
FFC0
01C0
0180
0380
0380
0380
0380
0700
0700
0700
ENDCHAR
STARTCHAR 053
ENCODING 53
SWIDTH 1512 0
DWIDTH 21 0
BBX 16 19 2 0
BITMAP
03FE
03FF
0700
0700
0E00
0E00
0F80
1FE0
1FF0
0078
0038
0018
0018
8018
E038
7870
3FF0
1FE0
0780
ENDCHAR
STARTCHAR 054
ENCODING 54
SWIDTH 1512 0
DWIDTH 21 0
BBX 12 19 5 0
BITMAP
07C0
1FE0
3870
3830
7010
E000
E000
E780
EFC0
FFE0
F8F0
F070
E030
E030
E070
F0E0
7FE0
3FC0
1F00
ENDCHAR
STARTCHAR 055
ENCODING 55
SWIDTH 1512 0
DWIDTH 21 0
BBX 15 19 2 0
BITMAP
3FFE
7FFC
E03C
E038
C038
0070
0070
00E0
01E0
01C0
03C0
0380
0780
0700
0F00
0F00
1E00
1E00
1E00
ENDCHAR
STARTCHAR 056
ENCODING 56
SWIDTH 1512 0
DWIDTH 21 0
BBX 12 20 6 0
BITMAP
07C0
0FE0
1FF0
3870
3870
3870
3870
3DE0
1FC0
1F80
3F80
7FC0
61E0
E0E0
C0E0
C0E0
E1E0
7FC0
7F80
3E00
ENDCHAR
STARTCHAR 057
ENCODING 57
SWIDTH 1512 0
DWIDTH 21 0
BBX 13 19 4 0
BITMAP
03E0
0FF0
1FF0
3C78
3C38
3838
3838
3C78
3FF0
1FF0
0FF0
00E0
00E0
01E0
01C0
83C0
C780
FF00
7C00
ENDCHAR
STARTCHAR 058
ENCODING 58
SWIDTH 1512 0
DWIDTH 21 0
BBX 6 13 8 2
BITMAP
30
30
FC
FC
30
30
00
00
30
FC
FC
FC
30
ENDCHAR
STARTCHAR 059
ENCODING 59
SWIDTH 1512 0
DWIDTH 21 0
BBX 7 16 8 -1
BITMAP
18
18
7E
7E
18
18
00
00
18
7E
7E
7E
18
70
70
E0
ENDCHAR
STARTCHAR 060
ENCODING 60
SWIDTH 1512 0
DWIDTH 21 0
BBX 15 18 2 -1
BITMAP
000E
000E
003C
01F0
0FE0
1F00
1F00
3C00
E000
E000
E000
3C00
1F00
0FE0
01F0
01F0
003C
000E
ENDCHAR
STARTCHAR 061
ENCODING 61
SWIDTH 1584 0
DWIDTH 22 0
BBX 16 9 2 4
BITMAP
FFFF
FFFF
FFFF
0000
0000
0000
0000
FFFF
FFFF
ENDCHAR
STARTCHAR 062
ENCODING 62
SWIDTH 1512 0
DWIDTH 21 0
BBX 15 18 4 -1
BITMAP
E000
E000
7800
1F00
0FE0
01F0
01F0
0078
000E
000E
000E
0078
01F0
0FE0
1F00
1F00
7800
E000
ENDCHAR
STARTCHAR 063
ENCODING 63
SWIDTH 1512 0
DWIDTH 21 0
BBX 14 24 5 -1
BITMAP
0FC0
0FC0
1FE0
3FF0
F03C
F03C
E01C
001C
003C
00F0
00F0
01E0
03C0
0F00
0F00
0E00
0000
0000
0E00
0E00
1F00
1F00
0E00
0E00
ENDCHAR
STARTCHAR 064
ENCODING 64
SWIDTH 1512 0
DWIDTH 21 0
BBX 16 28 2 -5
BITMAP
03C0
07E0
07E0
07E0
07E0
03C0
0180
07E0
1FF8
3FFC
7FFE
7FFE
F7EF
E7E7
E7E7
C7E3
C7E3
0FF0
0FF0
0FF0
0FF0
0E70
0E70
0E70
0E70
0E70
1E78
1E78
ENDCHAR
STARTCHAR 065
ENCODING 65
SWIDTH 1512 0
DWIDTH 21 0
BBX 18 23 2 0
BITMAP
0F8000
3FC000
7FF000
7FF000
7BF000
43F800
07B800
07B800
073C00
0F0C00
0F0C00
0C0F00
0C0F00
3C0F00
3FFF00
3FFF80
3FFF80
780780
780780
780780
F807C0
F807C0
F807C0
ENDCHAR
STARTCHAR 066
ENCODING 66
SWIDTH 1512 0
DWIDTH 21 0
BBX 14 21 2 0
BITMAP
FF00
FF00
FFC0
FFE0
F0F0
F0F0
F030
F030
F0E0
FFE0
FFE0
FFF0
F01C
F00C
F00C
F01C
F03C
FFF0
FFE0
FFE0
FF00
ENDCHAR
STARTCHAR 067
ENCODING 67
SWIDTH 1512 0
DWIDTH 21 0
BBX 17 21 2 0
BITMAP
07FC00
07FC00
0FFF00
3FFF00
7F0780
780780
780780
F80700
F00000
F00000
F00000
F00000
F00000
F00000
F00000
F80300
7C0700
7F8F00
3FFC00
3FFC00
07F800
ENDCHAR
STARTCHAR 068
ENCODING 68
SWIDTH 1512 0
DWIDTH 21 0
BBX 19 22 2 0
BITMAP
FFFC00
3FFF00
3FFF00
1FFFC0
1C03E0
1C01E0
1C01E0
1C00E0
1C00E0
1C00E0
1C00E0
1C00E0
1C00E0
1C00E0
1C00E0
1C00E0
1C01E0
1C03E0
11FFE0
3FFFC0
3FFFC0
FFFE00
ENDCHAR
STARTCHAR 069
ENCODING 69
SWIDTH 1512 0
DWIDTH 21 0
BBX 15 22 2 -1
BITMAP
3FF0
3FF0
FFFC
FFFC
E00E
E00E
E000
E000
E000
FF00
FF00
FFC0
FF00
E000
E000
E000
E000
E00E
FFFC
FFFC
FFFC
3FF0
ENDCHAR
STARTCHAR 070
ENCODING 70
SWIDTH 1512 0
DWIDTH 21 0
BBX 17 24 2 -1
BITMAP
380000
7C0380
C7FF80
C7FF80
C7FF80
7FFF80
3C0380
3C0380
3C0000
3C0000
3C3000
3FF000
3FF800
3FF800
3FF000
3C3000
3C0000
3C0000
3C0000
3C0000
3C0000
3C0000
3C0000
3C0000
ENDCHAR
STARTCHAR 071
ENCODING 71
SWIDTH 1512 0
DWIDTH 21 0
BBX 18 23 2 -1
BITMAP
07F800
0FFF00
0FFF00
3FFF80
3F07C0
7C03C0
7C03C0
780000
780000
F00000
F00000
F00000
F00F00
F03F80
F07FC0
F07FC0
7803C0
7C03C0
7F0380
3FFF80
3FFF80
0FFF00
03F800
ENDCHAR
STARTCHAR 072
ENCODING 72
SWIDTH 1512 0
DWIDTH 21 0
BBX 18 23 2 0
BITMAP
0701C0
0F03C0
7C0780
7C0780
FC0F80
3C0F80
3C0780
3C0780
3C0780
3C0780
3C0780
3FFF80
3FFF80
3FFF80
3C0780
3C0780
3C0780
3C0780
3C0780
3C0780
7C07C0
7C07C0
FC07C0
ENDCHAR
STARTCHAR 073
ENCODING 73
SWIDTH 1512 0
DWIDTH 21 0
BBX 9 21 7 0
BITMAP
FF80
FF80
FF80
FF80
3C00
3C00
3C00
3C00
3C00
3C00
3C00
3C00
3C00
3C00
3C00
3C00
3C00
3C00
FF80
FF80
FF80
ENDCHAR
STARTCHAR 074
ENCODING 74
SWIDTH 1512 0
DWIDTH 21 0
BBX 19 24 1 0
BITMAP
0007C0
000F60
001FE0
001FE0
001F00
000FC0
000F80
000F00
000F00
000F00
000F00
000F00
000F00
000F00
700F00
F80F00
F80F00
700F00
700F00
783E00
3C7C00
3FFC00
3FF800
0FF000
ENDCHAR
STARTCHAR 075
ENCODING 75
SWIDTH 1512 0
DWIDTH 21 0
BBX 18 23 2 0
BITMAP
000F00
F80F00
FC3B80
FC3B80
7C7000
707000
70F000
70F000
70C000
73C000
778000
7F8000
7F8000
7F8000
7FC000
73F0C0
73F0C0
70F0C0
707BC0
707F80
F83F80
F83F80
F80F00
ENDCHAR
STARTCHAR 076
ENCODING 76
SWIDTH 1512 0
DWIDTH 21 0
BBX 16 21 2 0
BITMAP
FF80
FF80
7F80
1E00
1E00
1E00
1E00
1E00
1E00
1E00
1E00
1E00
1E00
1E00
1E00
1E07
1E0F
7E7F
7FFF
7FFF
7FFF
ENDCHAR
STARTCHAR 077
ENCODING 77
SWIDTH 1512 0
DWIDTH 21 0
BBX 21 22 0 0
BITMAP
0C0020
0E00E0
0E00E0
0E00E0
0F01E0
0F01E0
0F01E0
1FC330
1FC330
1DEF30
1CEE30
1CEE30
1CEE30
3C3E30
3C3C30
3C3C30
3C3C30
3C1030
3C0038
FE00F8
FE00F8
FF01F8
ENDCHAR
STARTCHAR 078
ENCODING 78
SWIDTH 1512 0
DWIDTH 21 0
BBX 17 21 2 -1
BITMAP
000100
700780
780780
7C0780
7C0780
7C0780
770780
778780
738780
738780
73C780
70F700
70FF00
70FF00
707F00
703F00
703F00
700F00
700F00
F00F00
800000
ENDCHAR
STARTCHAR 079
ENCODING 79
SWIDTH 1512 0
DWIDTH 21 0
BBX 18 19 2 0
BITMAP
07F800
0FFC00
380F00
780F00
C00780
C003C0
C000C0
C000C0
C000C0
C000C0
C000C0
C000C0
C000C0
F003C0
700380
3C0F00
0FFC00
0FFC00
07F800
ENDCHAR
STARTCHAR 080
ENCODING 80
SWIDTH 1512 0
DWIDTH 21 0
BBX 18 23 2 -1
BITMAP
FFB800
7FBC00
7FBC00
0F7F00
0C0780
0C03C0
0C03C0
0C00C0
0C00C0
0C07C0
0FFF80
0FFF80
0FFC00
0C0000
0C0000
0C0000
0C0000
0C0000
0C0000
3C0000
3C0000
7C0000
FC0000
ENDCHAR
STARTCHAR 081
ENCODING 81
SWIDTH 1512 0
DWIDTH 21 0
BBX 19 24 2 -1
BITMAP
0FF000
3FF800
7FFC00
7FFC00
7FFF00
FC3F80
F80F80
F80F80
F00380
F003C0
C000C0
C000C0
C000C0
C000C0
C070C0
C070C0
C070C0
F03B80
703F80
3C0F00
0FFF80
0FFF80
07FBC0
0000E0
ENDCHAR
STARTCHAR 082
ENCODING 82
SWIDTH 1512 0
DWIDTH 21 0
BBX 18 22 2 0
BITMAP
FFC000
FFF000
FFF000
7FF800
703C00
700F00
700F00
700700
700700
703F00
7FFC00
7FFC00
7FF000
70F000
70F000
70F000
707800
7838C0
7C0FC0
7C0FC0
7C0FC0
7C0780
ENDCHAR
STARTCHAR 083
ENCODING 83
SWIDTH 1512 0
DWIDTH 21 0
BBX 16 20 2 0
BITMAP
01FC
07FE
1FFC
7800
7800
7000
7000
7800
1FE0
1FE0
07F8
001E
0007
0007
E007
F007
780F
1FFE
1FFE
0FF0
ENDCHAR
STARTCHAR 084
ENCODING 84
SWIDTH 1512 0
DWIDTH 21 0
BBX 18 23 2 0
BITMAP
800040
C000C0
FFFFC0
FFFFC0
FFFFC0
FFFFC0
03F000
03F000
03F000
03F000
03F000
03F000
03F000
03F000
03F000
03F000
03F000
03F000
03F000
03F000
07F800
07F800
0FFC00
ENDCHAR
STARTCHAR 085
ENCODING 85
SWIDTH 1512 0
DWIDTH 21 0
BBX 18 22 2 0
BITMAP
833040
FF3FC0
FF3FC0
FC0FC0
780780
780780
780780
780780
780780
780780
780780
780780
780780
780780
780780
780780
780780
780780
3C0F00
0FFC00
0FFC00
07F800
ENDCHAR
STARTCHAR 086
ENCODING 86
SWIDTH 1512 0
DWIDTH 21 0
BBX 18 21 2 0
BITMAP
FF0FC0
FF0FC0
F803C0
7003C0
700380
700380
700780
380700
380700
380C00
380C00
0C0C00
0C3800
0C3800
0C3800
073800
077000
077000
03C000
03C000
03C000
ENDCHAR
STARTCHAR 087
ENCODING 87
SWIDTH 1512 0
DWIDTH 21 0
BBX 18 23 2 0
BITMAP
800040
800040
C000C0
C000C0
C000C0
F003C0
F003C0
F003C0
F003C0
F003C0
F083C0
F0C3C0
F0C3C0
F3C3C0
F3F3C0
F7F3C0
F7F3C0
F73BC0
FF3FC0
7C0F80
780780
780780
700380
ENDCHAR
STARTCHAR 088
ENCODING 88
SWIDTH 1512 0
DWIDTH 21 0
BBX 18 23 2 0
BITMAP
F003C0
F807C0
FC0FC0
FC0FC0
BC0F40
8F3C40
0F3C00
0F3C00
07F800
03F000
03F000
03F800
03F800
07F800
073800
0F3C00
0F3C00
BC0F40
BC0F40
F807C0
F003C0
F003C0
700380
ENDCHAR
STARTCHAR 089
ENCODING 89
SWIDTH 1512 0
DWIDTH 21 0
BBX 18 24 2 -1
BITMAP
F003C0
F00340
7003C0
7003C0
380700
380700
0C0C00
0C0C00
0C0C00
073800
073800
03F000
03F000
03F000
00C000
00C000
00C000
00C000
00C000
00C000
0FFC00
0FFC00
07F800
03F000
ENDCHAR
STARTCHAR 090
ENCODING 90
SWIDTH 1512 0
DWIDTH 21 0
BBX 18 22 2 0
BITMAP
300000
700000
700000
FFFF80
FFFF80
003F00
003F00
003C00
007800
00F800
00F000
00F000
03C000
078000
078000
078000
0F0000
0C0040
7800C0
FFFF80
FFFF80
FFFF00
ENDCHAR
STARTCHAR 091
ENCODING 91
SWIDTH 1512 0
DWIDTH 21 0
BBX 12 26 5 -4
BITMAP
FFF0
FFF0
FFF0
FFF0
E000
E000
E000
E000
E000
E000
E000
E000
E000
E000
E000
E000
E000
E000
E000
E000
E000
E000
FFF0
FFF0
FFF0
FFF0
ENDCHAR
STARTCHAR 092
ENCODING 92
SWIDTH 1512 0
DWIDTH 21 0
BBX 12 21 7 0
BITMAP
C000
C000
E000
F000
7000
7000
3800
3800
1C00
1C00
0E00
0F00
0700
0780
0380
03C0
01C0
00E0
00F0
0070
0070
ENDCHAR
STARTCHAR 093
ENCODING 93
SWIDTH 1512 0
DWIDTH 21 0
BBX 12 26 4 -4
BITMAP
FFF0
FFF0
FFF0
FFF0
0070
0070
0070
0070
0070
0070
0070
0070
0070
0070
0070
0070
0070
0070
0070
0070
0070
0070
FFF0
FFF0
FFF0
FFF0
ENDCHAR
STARTCHAR 094
ENCODING 94
SWIDTH 1512 0
DWIDTH 21 0
BBX 16 13 2 8
BITMAP
0180
0180
0180
07E0
0FF0
0FF0
0FF0
1FF8
7FFE
7E7E
7E7E
F81F
F00F
ENDCHAR
STARTCHAR 095
ENCODING 95
SWIDTH 1512 0
DWIDTH 21 0
BBX 21 4 0 -5
BITMAP
FFFFF8
FFFFF8
FFFFF8
FFFFF8
ENDCHAR
STARTCHAR 096
ENCODING 96
SWIDTH 1512 0
DWIDTH 21 0
BBX 7 7 7 12
BITMAP
30
FC
FC
FC
30
1C
0E
ENDCHAR
STARTCHAR 097
ENCODING 97
SWIDTH 1512 0
DWIDTH 21 0
BBX 14 13 5 3
BITMAP
1F30
3FE0
3FE0
F1E0
E0E0
E0E0
E0E0
E0E0
E0E0
F1EC
3FFC
3FFC
1E30
ENDCHAR
STARTCHAR 098
ENCODING 98
SWIDTH 1512 0
DWIDTH 21 0
BBX 15 23 2 -1
BITMAP
0C00
1C00
1C00
3C00
FC00
1C00
1C00
1C00
1C00
1C00
1DF0
1DF0
1FFC
1F1C
1E0E
1E0E
1C0E
1C0E
1E1E
1FFE
1FFE
3FFC
E000
ENDCHAR
STARTCHAR 099
ENCODING 99
SWIDTH 1512 0
DWIDTH 21 0
BBX 12 15 4 0
BITMAP
00E0
0FA0
3FF0
78F0
7870
F400
C000
F000
C000
D000
E010
F530
7FF0
7FF0
3FC0
ENDCHAR
STARTCHAR 100
ENCODING 100
SWIDTH 1512 0
DWIDTH 21 0
BBX 12 22 2 0
BITMAP
0020
0030
0030
0030
0030
0030
0030
0030
0030
0F30
1FF0
1FF0
3CF0
F030
E030
E030
E030
E030
E0F0
FFF0
FFF0
3F30
ENDCHAR
STARTCHAR 101
ENCODING 101
SWIDTH 1512 0
DWIDTH 21 0
BBX 12 14 2 0
BITMAP
0F80
3FC0
7CF0
7CF0
FFF0
FFC0
FF80
FF80
C000
C000
F030
7FF0
7FF0
3FC0
ENDCHAR
STARTCHAR 102
ENCODING 102
SWIDTH 1512 0
DWIDTH 21 0
BBX 12 21 5 0
BITMAP
0F80
0F80
0FC0
0CC0
0C00
0C00
0C00
0C00
0C00
4C30
4C30
7FF0
FFC0
8C40
8C40
0C00
0C00
0C00
0C00
0C00
3F00
ENDCHAR
STARTCHAR 103
ENCODING 103
SWIDTH 1512 0
DWIDTH 21 0
BBX 13 20 5 -3
BITMAP
0FC0
3FF0
7870
7070
7070
70F0
78F0
7FF0
7FF0
3FC0
03F8
0FF0
7CC0
7CC0
F0C0
C380
8780
8780
CF00
7800
ENDCHAR
STARTCHAR 104
ENCODING 104
SWIDTH 1512 0
DWIDTH 21 0
BBX 17 20 2 -1
BITMAP
080000
180000
780000
780000
F80000
180000
180000
180000
180000
180000
19E000
1FF000
1FF000
1FF000
187000
187000
187880
187980
187F80
7E1F00
ENDCHAR
STARTCHAR 105
ENCODING 105
SWIDTH 1512 0
DWIDTH 21 0
BBX 8 19 7 0
BITMAP
3C
3C
00
00
00
00
3C
3C
3C
1C
1C
1C
1C
1C
1C
1C
3E
3E
FF
ENDCHAR
STARTCHAR 106
ENCODING 106
SWIDTH 1512 0
DWIDTH 21 0
BBX 14 24 3 -3
BITMAP
003C
003C
003C
003C
0000
0000
0010
0010
0010
0030
0030
0030
0030
0030
0030
0030
2030
2030
E030
E0E0
F1E0
F1E0
3FC0
1F00
ENDCHAR
STARTCHAR 107
ENCODING 107
SWIDTH 1512 0
DWIDTH 21 0
BBX 16 20 2 -3
BITMAP
0800
0800
1800
7800
F81E
187E
187E
18F6
19E0
1F00
1F00
1F80
18E0
1870
1879
1879
181F
700F
6000
6000
ENDCHAR
STARTCHAR 108
ENCODING 108
SWIDTH 1512 0
DWIDTH 21 0
BBX 11 22 5 0
BITMAP
0780
0FE0
0FE0
1EE0
18E0
1180
1180
7180
7700
7700
FE00
FE00
F800
F000
F000
F000
E000
E000
E700
FF00
FF00
7E00
ENDCHAR
STARTCHAR 109
ENCODING 109
SWIDTH 1512 0
DWIDTH 21 0
BBX 17 14 2 0
BITMAP
0FBF00
3FFF00
7BF780
7BF780
70C380
70C380
F0C380
F0C380
C08780
C08780
C00700
C00F00
C00F00
400C00
ENDCHAR
STARTCHAR 110
ENCODING 110
SWIDTH 1512 0
DWIDTH 21 0
BBX 18 14 2 0
BITMAP
0C0000
7FF000
FFF800
FFF800
8C3800
0C3800
0C3800
0C3800
0C3800
0C3840
0C3CC0
3C0FC0
3C0FC0
7F0780
ENDCHAR
STARTCHAR 111
ENCODING 111
SWIDTH 1512 0
DWIDTH 21 0
BBX 14 13 2 0
BITMAP
1FE0
2FF0
6FF0
E03C
E01C
E03C
E03C
E03C
E01C
F03C
3FF0
3FF0
1FE0
ENDCHAR
STARTCHAR 112
ENCODING 112
SWIDTH 1512 0
DWIDTH 21 0
BBX 12 19 2 -5
BITMAP
8000
FF80
FF80
FFC0
C0F0
C070
C070
C070
C0F0
FFC0
FF00
FF00
C000
C000
C000
C000
C000
C000
8000
ENDCHAR
STARTCHAR 113
ENCODING 113
SWIDTH 1512 0
DWIDTH 21 0
BBX 16 20 2 -6
BITMAP
0010
1F30
3FF0
3FF0
F0F0
F030
E030
E030
E030
F0F0
3FF0
1F30
1F30
0030
0031
0032
0032
003E
003C
0020
ENDCHAR
STARTCHAR 114
ENCODING 114
SWIDTH 1584 0
DWIDTH 22 0
BBX 13 15 8 -1
BITMAP
3000
3800
3F00
3F00
7FF8
78F0
7000
7000
7000
7000
F000
C000
C000
C000
C000
ENDCHAR
STARTCHAR 115
ENCODING 115
SWIDTH 1512 0
DWIDTH 21 0
BBX 12 15 5 1
BITMAP
0FC0
3FF0
7070
7070
7000
7000
7F00
7F00
0F80
00C0
00C0
C0C0
C0C0
FF80
7F00
ENDCHAR
STARTCHAR 116
ENCODING 116
SWIDTH 1512 0
DWIDTH 21 0
BBX 13 20 2 0
BITMAP
0300
0580
0780
0700
0700
0700
FF00
7FF0
07F8
07F8
0700
0700
0700
0700
0700
0700
0700
07C0
07E0
03C0
ENDCHAR
STARTCHAR 117
ENCODING 117
SWIDTH 1512 0
DWIDTH 21 0
BBX 15 14 2 0
BITMAP
1010
301C
301C
301C
F01E
F01E
F01E
F01E
F01E
F01E
3C3C
1FF0
1FF0
0FE0
ENDCHAR
STARTCHAR 118
ENCODING 118
SWIDTH 1512 0
DWIDTH 21 0
BBX 18 14 2 0
BITMAP
F807C0
780380
300700
300700
380700
0C0C00
0C0C00
0C0C00
073800
073800
03F000
03F000
03F000
00C000
ENDCHAR
STARTCHAR 119
ENCODING 119
SWIDTH 1512 0
DWIDTH 21 0
BBX 21 14 0 0
BITMAP
FC0008
8F0008
870038
870038
070438
070C38
038C70
038C70
03BF70
00B340
00F3C0
00F3C0
00F3C0
004080
ENDCHAR
STARTCHAR 120
ENCODING 120
SWIDTH 1512 0
DWIDTH 21 0
BBX 16 14 2 0
BITMAP
F00F
700E
1818
1818
0E70
0FF0
07E0
07E0
07E0
0E70
1E78
781E
781E
F00F
ENDCHAR
STARTCHAR 121
ENCODING 121
SWIDTH 1512 0
DWIDTH 21 0
BBX 13 19 2 -5
BITMAP
C038
C038
F038
F038
7078
7070
3870
3870
3CC0
0FC0
0780
0780
0780
0700
0F00
3C00
3C00
F800
F000
ENDCHAR
STARTCHAR 122
ENCODING 122
SWIDTH 1512 0
DWIDTH 21 0
BBX 14 14 2 0
BITMAP
3FFC
FFFC
E030
E030
C0E0
01E0
03C0
03C0
0F00
1E0C
3C1C
FFFC
FFFC
FFF0
ENDCHAR
STARTCHAR 123
ENCODING 123
SWIDTH 1512 0
DWIDTH 21 0
BBX 12 26 4 -4
BITMAP
03F0
03F0
07D0
0710
0F10
0F10
0C10
0C10
0C10
0C10
0C10
3810
F010
3810
3810
0C10
0C10
0C10
0C10
0C10
0C10
0F10
0710
0710
07D0
03F0
ENDCHAR
STARTCHAR 124
ENCODING 124
SWIDTH 1512 0
DWIDTH 21 0
BBX 13 26 3 -4
BITMAP
0200
0200
0200
0200
0200
0200
0200
0200
0200
0200
0200
0200
0200
0200
0200
0200
0200
0200
0200
8208
4710
3FE0
0700
0700
0700
0200
ENDCHAR
STARTCHAR 125
ENCODING 125
SWIDTH 1512 0
DWIDTH 21 0
BBX 12 26 5 -4
BITMAP
FC00
FC00
BE00
8E00
8F00
8F00
8300
8300
8300
8300
8300
81C0
80F0
81C0
81C0
8300
8300
8300
8300
8300
8300
8F00
8E00
8E00
BE00
FC00
ENDCHAR
STARTCHAR 126
ENCODING 126
SWIDTH 1512 0
DWIDTH 21 0
BBX 16 5 3 8
BITMAP
1E07
7F8F
7F8F
F1FE
E078
ENDCHAR
STARTCHAR 127
ENCODING 127
SWIDTH 1512 0
DWIDTH 21 0
BBX 21 29 0 -6
BITMAP
FFFE78
FFFE78
FFFE78
FFFE78
FFFE78
FFFE78
000000
000000
FF9FF8
FF9FF8
FF9FF8
FF9FF8
FF9FF8
000000
000000
FFFE78
FFFE78
FFFE78
FFFE78
FFFE78
000000
000000
FF9FF8
FF9FF8
FF9FF8
FF9FF8
FF9FF8
FF9FF8
FF9FF8
ENDCHAR
STARTCHAR 128
ENCODING 128
SWIDTH 1512 0
DWIDTH 21 0
BBX 21 31 0 -6
BITMAP
186060
186060
E18780
E18780
199860
199860
066018
066018
E66780
E66780
199860
199860
199860
066198
066198
F81800
F81800
078618
078618
186660
186660
E01980
079998
079998
186660
186660
186660
186660
061980
061980
018000
ENDCHAR
STARTCHAR 129
ENCODING 129
SWIDTH 1512 0
DWIDTH 21 0
BBX 0 0 0 0
BITMAP
ENDCHAR
STARTCHAR 130
ENCODING 130
SWIDTH 1512 0
DWIDTH 21 0
BBX 0 0 0 0
BITMAP
ENDCHAR
STARTCHAR 131
ENCODING 131
SWIDTH 1512 0
DWIDTH 21 0
BBX 0 0 0 0
BITMAP
ENDCHAR
STARTCHAR 132
ENCODING 132
SWIDTH 1512 0
DWIDTH 21 0
BBX 0 0 0 0
BITMAP
ENDCHAR
STARTCHAR 133
ENCODING 133
SWIDTH 1512 0
DWIDTH 21 0
BBX 0 0 0 0
BITMAP
ENDCHAR
STARTCHAR 134
ENCODING 134
SWIDTH 1512 0
DWIDTH 21 0
BBX 0 0 0 0
BITMAP
ENDCHAR
STARTCHAR 135
ENCODING 135
SWIDTH 1512 0
DWIDTH 21 0
BBX 0 0 0 0
BITMAP
ENDCHAR
STARTCHAR 136
ENCODING 136
SWIDTH 1512 0
DWIDTH 21 0
BBX 0 0 0 0
BITMAP
ENDCHAR
STARTCHAR 137
ENCODING 137
SWIDTH 1512 0
DWIDTH 21 0
BBX 0 0 0 0
BITMAP
ENDCHAR
STARTCHAR 138
ENCODING 138
SWIDTH 1512 0
DWIDTH 21 0
BBX 0 0 0 0
BITMAP
ENDCHAR
STARTCHAR 139
ENCODING 139
SWIDTH 1512 0
DWIDTH 21 0
BBX 0 0 0 0
BITMAP
ENDCHAR
STARTCHAR 140
ENCODING 140
SWIDTH 1512 0
DWIDTH 21 0
BBX 0 0 0 0
BITMAP
ENDCHAR
STARTCHAR 141
ENCODING 141
SWIDTH 1512 0
DWIDTH 21 0
BBX 0 0 0 0
BITMAP
ENDCHAR
STARTCHAR 142
ENCODING 142
SWIDTH 1512 0
DWIDTH 21 0
BBX 0 0 0 0
BITMAP
ENDCHAR
STARTCHAR 143
ENCODING 143
SWIDTH 1512 0
DWIDTH 21 0
BBX 0 0 0 0
BITMAP
ENDCHAR
STARTCHAR 144
ENCODING 144
SWIDTH 1512 0
DWIDTH 21 0
BBX 0 0 0 0
BITMAP
ENDCHAR
STARTCHAR 145
ENCODING 145
SWIDTH 1512 0
DWIDTH 21 0
BBX 0 0 0 0
BITMAP
ENDCHAR
STARTCHAR 146
ENCODING 146
SWIDTH 1512 0
DWIDTH 21 0
BBX 0 0 0 0
BITMAP
ENDCHAR
STARTCHAR 147
ENCODING 147
SWIDTH 1512 0
DWIDTH 21 0
BBX 0 0 0 0
BITMAP
ENDCHAR
STARTCHAR 148
ENCODING 148
SWIDTH 1512 0
DWIDTH 21 0
BBX 0 0 0 0
BITMAP
ENDCHAR
STARTCHAR 149
ENCODING 149
SWIDTH 1512 0
DWIDTH 21 0
BBX 0 0 0 0
BITMAP
ENDCHAR
STARTCHAR 150
ENCODING 150
SWIDTH 1512 0
DWIDTH 21 0
BBX 0 0 0 0
BITMAP
ENDCHAR
STARTCHAR 151
ENCODING 151
SWIDTH 1512 0
DWIDTH 21 0
BBX 0 0 0 0
BITMAP
ENDCHAR
STARTCHAR 152
ENCODING 152
SWIDTH 1512 0
DWIDTH 21 0
BBX 0 0 0 0
BITMAP
ENDCHAR
STARTCHAR 153
ENCODING 153
SWIDTH 1512 0
DWIDTH 21 0
BBX 0 0 0 0
BITMAP
ENDCHAR
STARTCHAR 154
ENCODING 154
SWIDTH 1512 0
DWIDTH 21 0
BBX 0 0 0 0
BITMAP
ENDCHAR
STARTCHAR 155
ENCODING 155
SWIDTH 1512 0
DWIDTH 21 0
BBX 0 0 0 0
BITMAP
ENDCHAR
STARTCHAR 156
ENCODING 156
SWIDTH 1512 0
DWIDTH 21 0
BBX 0 0 0 0
BITMAP
ENDCHAR
STARTCHAR 157
ENCODING 157
SWIDTH 1512 0
DWIDTH 21 0
BBX 0 0 0 0
BITMAP
ENDCHAR
STARTCHAR 158
ENCODING 158
SWIDTH 1512 0
DWIDTH 21 0
BBX 0 0 0 0
BITMAP
ENDCHAR
STARTCHAR 159
ENCODING 159
SWIDTH 1512 0
DWIDTH 21 0
BBX 0 0 0 0
BITMAP
ENDCHAR
STARTCHAR 160
ENCODING 160
SWIDTH 1512 0
DWIDTH 21 0
BBX 0 0 0 0
BITMAP
ENDCHAR
STARTCHAR 161
ENCODING 161
SWIDTH 1512 0
DWIDTH 21 0
BBX 0 0 0 0
BITMAP
ENDCHAR
STARTCHAR 162
ENCODING 162
SWIDTH 1512 0
DWIDTH 21 0
BBX 0 0 0 0
BITMAP
ENDCHAR
STARTCHAR 163
ENCODING 163
SWIDTH 1512 0
DWIDTH 21 0
BBX 0 0 0 0
BITMAP
ENDCHAR
STARTCHAR 164
ENCODING 164
SWIDTH 1512 0
DWIDTH 21 0
BBX 0 0 0 0
BITMAP
ENDCHAR
STARTCHAR 165
ENCODING 165
SWIDTH 1512 0
DWIDTH 21 0
BBX 0 0 0 0
BITMAP
ENDCHAR
STARTCHAR 166
ENCODING 166
SWIDTH 1512 0
DWIDTH 21 0
BBX 0 0 0 0
BITMAP
ENDCHAR
STARTCHAR 167
ENCODING 167
SWIDTH 1512 0
DWIDTH 21 0
BBX 0 0 0 0
BITMAP
ENDCHAR
STARTCHAR 168
ENCODING 168
SWIDTH 1512 0
DWIDTH 21 0
BBX 0 0 0 0
BITMAP
ENDCHAR
STARTCHAR 169
ENCODING 169
SWIDTH 1512 0
DWIDTH 21 0
BBX 0 0 0 0
BITMAP
ENDCHAR
STARTCHAR 170
ENCODING 170
SWIDTH 1512 0
DWIDTH 21 0
BBX 0 0 0 0
BITMAP
ENDCHAR
STARTCHAR 171
ENCODING 171
SWIDTH 1512 0
DWIDTH 21 0
BBX 0 0 0 0
BITMAP
ENDCHAR
STARTCHAR 172
ENCODING 172
SWIDTH 1512 0
DWIDTH 21 0
BBX 0 0 0 0
BITMAP
ENDCHAR
STARTCHAR 173
ENCODING 173
SWIDTH 1512 0
DWIDTH 21 0
BBX 0 0 0 0
BITMAP
ENDCHAR
STARTCHAR 174
ENCODING 174
SWIDTH 1512 0
DWIDTH 21 0
BBX 0 0 0 0
BITMAP
ENDCHAR
STARTCHAR 175
ENCODING 175
SWIDTH 1512 0
DWIDTH 21 0
BBX 0 0 0 0
BITMAP
ENDCHAR
STARTCHAR 176
ENCODING 176
SWIDTH 1512 0
DWIDTH 21 0
BBX 0 0 0 0
BITMAP
ENDCHAR
STARTCHAR 177
ENCODING 177
SWIDTH 1512 0
DWIDTH 21 0
BBX 0 0 0 0
BITMAP
ENDCHAR
STARTCHAR 178
ENCODING 178
SWIDTH 1512 0
DWIDTH 21 0
BBX 0 0 0 0
BITMAP
ENDCHAR
STARTCHAR 179
ENCODING 179
SWIDTH 1512 0
DWIDTH 21 0
BBX 0 0 0 0
BITMAP
ENDCHAR
STARTCHAR 180
ENCODING 180
SWIDTH 1512 0
DWIDTH 21 0
BBX 0 0 0 0
BITMAP
ENDCHAR
STARTCHAR 181
ENCODING 181
SWIDTH 1512 0
DWIDTH 21 0
BBX 0 0 0 0
BITMAP
ENDCHAR
STARTCHAR 182
ENCODING 182
SWIDTH 1512 0
DWIDTH 21 0
BBX 0 0 0 0
BITMAP
ENDCHAR
STARTCHAR 183
ENCODING 183
SWIDTH 1512 0
DWIDTH 21 0
BBX 0 0 0 0
BITMAP
ENDCHAR
STARTCHAR 184
ENCODING 184
SWIDTH 1512 0
DWIDTH 21 0
BBX 0 0 0 0
BITMAP
ENDCHAR
STARTCHAR 185
ENCODING 185
SWIDTH 1512 0
DWIDTH 21 0
BBX 0 0 0 0
BITMAP
ENDCHAR
STARTCHAR 186
ENCODING 186
SWIDTH 1512 0
DWIDTH 21 0
BBX 0 0 0 0
BITMAP
ENDCHAR
STARTCHAR 187
ENCODING 187
SWIDTH 1512 0
DWIDTH 21 0
BBX 0 0 0 0
BITMAP
ENDCHAR
STARTCHAR 188
ENCODING 188
SWIDTH 1512 0
DWIDTH 21 0
BBX 0 0 0 0
BITMAP
ENDCHAR
STARTCHAR 189
ENCODING 189
SWIDTH 1512 0
DWIDTH 21 0
BBX 0 0 0 0
BITMAP
ENDCHAR
STARTCHAR 190
ENCODING 190
SWIDTH 1512 0
DWIDTH 21 0
BBX 0 0 0 0
BITMAP
ENDCHAR
STARTCHAR 191
ENCODING 191
SWIDTH 1512 0
DWIDTH 21 0
BBX 0 0 0 0
BITMAP
ENDCHAR
STARTCHAR 192
ENCODING 192
SWIDTH 1512 0
DWIDTH 21 0
BBX 0 0 0 0
BITMAP
ENDCHAR
STARTCHAR 193
ENCODING 193
SWIDTH 1512 0
DWIDTH 21 0
BBX 0 0 0 0
BITMAP
ENDCHAR
STARTCHAR 194
ENCODING 194
SWIDTH 1512 0
DWIDTH 21 0
BBX 0 0 0 0
BITMAP
ENDCHAR
STARTCHAR 195
ENCODING 195
SWIDTH 1512 0
DWIDTH 21 0
BBX 0 0 0 0
BITMAP
ENDCHAR
STARTCHAR 196
ENCODING 196
SWIDTH 1512 0
DWIDTH 21 0
BBX 0 0 0 0
BITMAP
ENDCHAR
STARTCHAR 197
ENCODING 197
SWIDTH 1512 0
DWIDTH 21 0
BBX 0 0 0 0
BITMAP
ENDCHAR
STARTCHAR 198
ENCODING 198
SWIDTH 1512 0
DWIDTH 21 0
BBX 0 0 0 0
BITMAP
ENDCHAR
STARTCHAR 199
ENCODING 199
SWIDTH 1512 0
DWIDTH 21 0
BBX 0 0 0 0
BITMAP
ENDCHAR
STARTCHAR 200
ENCODING 200
SWIDTH 1512 0
DWIDTH 21 0
BBX 0 0 0 0
BITMAP
ENDCHAR
STARTCHAR 201
ENCODING 201
SWIDTH 1512 0
DWIDTH 21 0
BBX 1 1 13 7
BITMAP
80
ENDCHAR
STARTCHAR 202
ENCODING 202
SWIDTH 1512 0
DWIDTH 21 0
BBX 1 1 10 -6
BITMAP
80
ENDCHAR
STARTCHAR 203
ENCODING 203
SWIDTH 1512 0
DWIDTH 21 0
BBX 0 0 0 0
BITMAP
ENDCHAR
STARTCHAR 204
ENCODING 204
SWIDTH 1512 0
DWIDTH 21 0
BBX 0 0 0 0
BITMAP
ENDCHAR
STARTCHAR 205
ENCODING 205
SWIDTH 1512 0
DWIDTH 21 0
BBX 0 0 0 0
BITMAP
ENDCHAR
STARTCHAR 206
ENCODING 206
SWIDTH 1512 0
DWIDTH 21 0
BBX 0 0 0 0
BITMAP
ENDCHAR
STARTCHAR 207
ENCODING 207
SWIDTH 1512 0
DWIDTH 21 0
BBX 0 0 0 0
BITMAP
ENDCHAR
STARTCHAR 208
ENCODING 208
SWIDTH 1512 0
DWIDTH 21 0
BBX 0 0 0 0
BITMAP
ENDCHAR
STARTCHAR 209
ENCODING 209
SWIDTH 1512 0
DWIDTH 21 0
BBX 0 0 0 0
BITMAP
ENDCHAR
STARTCHAR 210
ENCODING 210
SWIDTH 1512 0
DWIDTH 21 0
BBX 0 0 0 0
BITMAP
ENDCHAR
STARTCHAR 211
ENCODING 211
SWIDTH 1512 0
DWIDTH 21 0
BBX 0 0 0 0
BITMAP
ENDCHAR
STARTCHAR 212
ENCODING 212
SWIDTH 1512 0
DWIDTH 21 0
BBX 0 0 0 0
BITMAP
ENDCHAR
STARTCHAR 213
ENCODING 213
SWIDTH 1512 0
DWIDTH 21 0
BBX 0 0 0 0
BITMAP
ENDCHAR
STARTCHAR 214
ENCODING 214
SWIDTH 1512 0
DWIDTH 21 0
BBX 0 0 0 0
BITMAP
ENDCHAR
STARTCHAR 215
ENCODING 215
SWIDTH 1512 0
DWIDTH 21 0
BBX 0 0 0 0
BITMAP
ENDCHAR
STARTCHAR 216
ENCODING 216
SWIDTH 1512 0
DWIDTH 21 0
BBX 0 0 0 0
BITMAP
ENDCHAR
STARTCHAR 217
ENCODING 217
SWIDTH 1512 0
DWIDTH 21 0
BBX 0 0 0 0
BITMAP
ENDCHAR
STARTCHAR 218
ENCODING 218
SWIDTH 1512 0
DWIDTH 21 0
BBX 0 0 0 0
BITMAP
ENDCHAR
STARTCHAR 219
ENCODING 219
SWIDTH 1512 0
DWIDTH 21 0
BBX 0 0 0 0
BITMAP
ENDCHAR
STARTCHAR 220
ENCODING 220
SWIDTH 1512 0
DWIDTH 21 0
BBX 0 0 0 0
BITMAP
ENDCHAR
STARTCHAR 221
ENCODING 221
SWIDTH 1512 0
DWIDTH 21 0
BBX 0 0 0 0
BITMAP
ENDCHAR
STARTCHAR 222
ENCODING 222
SWIDTH 1512 0
DWIDTH 21 0
BBX 0 0 0 0
BITMAP
ENDCHAR
STARTCHAR 223
ENCODING 223
SWIDTH 1512 0
DWIDTH 21 0
BBX 0 0 0 0
BITMAP
ENDCHAR
STARTCHAR 224
ENCODING 224
SWIDTH 1512 0
DWIDTH 21 0
BBX 0 0 0 0
BITMAP
ENDCHAR
STARTCHAR 225
ENCODING 225
SWIDTH 1512 0
DWIDTH 21 0
BBX 0 0 0 0
BITMAP
ENDCHAR
STARTCHAR 226
ENCODING 226
SWIDTH 1512 0
DWIDTH 21 0
BBX 0 0 0 0
BITMAP
ENDCHAR
STARTCHAR 227
ENCODING 227
SWIDTH 1512 0
DWIDTH 21 0
BBX 0 0 0 0
BITMAP
ENDCHAR
STARTCHAR 228
ENCODING 228
SWIDTH 1512 0
DWIDTH 21 0
BBX 0 0 0 0
BITMAP
ENDCHAR
STARTCHAR 229
ENCODING 229
SWIDTH 1512 0
DWIDTH 21 0
BBX 0 0 0 0
BITMAP
ENDCHAR
STARTCHAR 230
ENCODING 230
SWIDTH 1512 0
DWIDTH 21 0
BBX 0 0 0 0
BITMAP
ENDCHAR
STARTCHAR 231
ENCODING 231
SWIDTH 1512 0
DWIDTH 21 0
BBX 0 0 0 0
BITMAP
ENDCHAR
STARTCHAR 232
ENCODING 232
SWIDTH 1512 0
DWIDTH 21 0
BBX 0 0 0 0
BITMAP
ENDCHAR
STARTCHAR 233
ENCODING 233
SWIDTH 1512 0
DWIDTH 21 0
BBX 0 0 0 0
BITMAP
ENDCHAR
STARTCHAR 234
ENCODING 234
SWIDTH 1512 0
DWIDTH 21 0
BBX 0 0 0 0
BITMAP
ENDCHAR
STARTCHAR 235
ENCODING 235
SWIDTH 1512 0
DWIDTH 21 0
BBX 0 0 0 0
BITMAP
ENDCHAR
STARTCHAR 236
ENCODING 236
SWIDTH 1512 0
DWIDTH 21 0
BBX 0 0 0 0
BITMAP
ENDCHAR
STARTCHAR 237
ENCODING 237
SWIDTH 1512 0
DWIDTH 21 0
BBX 0 0 0 0
BITMAP
ENDCHAR
STARTCHAR 238
ENCODING 238
SWIDTH 1512 0
DWIDTH 21 0
BBX 0 0 0 0
BITMAP
ENDCHAR
STARTCHAR 239
ENCODING 239
SWIDTH 1512 0
DWIDTH 21 0
BBX 0 0 0 0
BITMAP
ENDCHAR
STARTCHAR 240
ENCODING 240
SWIDTH 1512 0
DWIDTH 21 0
BBX 0 0 0 0
BITMAP
ENDCHAR
STARTCHAR 241
ENCODING 241
SWIDTH 1512 0
DWIDTH 21 0
BBX 0 0 0 0
BITMAP
ENDCHAR
STARTCHAR 242
ENCODING 242
SWIDTH 1512 0
DWIDTH 21 0
BBX 0 0 0 0
BITMAP
ENDCHAR
STARTCHAR 243
ENCODING 243
SWIDTH 1512 0
DWIDTH 21 0
BBX 0 0 0 0
BITMAP
ENDCHAR
STARTCHAR 244
ENCODING 244
SWIDTH 1512 0
DWIDTH 21 0
BBX 0 0 0 0
BITMAP
ENDCHAR
STARTCHAR 245
ENCODING 245
SWIDTH 1512 0
DWIDTH 21 0
BBX 0 0 0 0
BITMAP
ENDCHAR
STARTCHAR 246
ENCODING 246
SWIDTH 1512 0
DWIDTH 21 0
BBX 0 0 0 0
BITMAP
ENDCHAR
STARTCHAR 247
ENCODING 247
SWIDTH 1512 0
DWIDTH 21 0
BBX 0 0 0 0
BITMAP
ENDCHAR
STARTCHAR 248
ENCODING 248
SWIDTH 1512 0
DWIDTH 21 0
BBX 0 0 0 0
BITMAP
ENDCHAR
STARTCHAR 249
ENCODING 249
SWIDTH 1512 0
DWIDTH 21 0
BBX 0 0 0 0
BITMAP
ENDCHAR
STARTCHAR 250
ENCODING 250
SWIDTH 1512 0
DWIDTH 21 0
BBX 0 0 0 0
BITMAP
ENDCHAR
STARTCHAR 251
ENCODING 251
SWIDTH 1512 0
DWIDTH 21 0
BBX 0 0 0 0
BITMAP
ENDCHAR
STARTCHAR 252
ENCODING 252
SWIDTH 1512 0
DWIDTH 21 0
BBX 0 0 0 0
BITMAP
ENDCHAR
STARTCHAR 253
ENCODING 253
SWIDTH 1512 0
DWIDTH 21 0
BBX 0 0 0 0
BITMAP
ENDCHAR
STARTCHAR 254
ENCODING 254
SWIDTH 1512 0
DWIDTH 21 0
BBX 0 0 0 0
BITMAP
ENDCHAR
STARTCHAR 255
ENCODING 255
SWIDTH 1512 0
DWIDTH 21 0
BBX 0 0 0 0
BITMAP
ENDCHAR
ENDFONT
